<?xml version="1.0" standalone="no"?>
<!DOCTYPE svg PUBLIC "-//W3C//DTD SVG 20010904//EN"
 "http://www.w3.org/TR/2001/REC-SVG-20010904/DTD/svg10.dtd">
<svg version="1.0" xmlns="http://www.w3.org/2000/svg"
 width="1565.000000pt" height="1565.000000pt" viewBox="0 0 1565.000000 1565.000000"
 preserveAspectRatio="xMidYMid meet">
<metadata>
Created by potrace 1.14, written by Peter Selinger 2001-2017
</metadata>
<g transform="translate(0.000000,1565.000000) scale(0.100000,-0.100000)"
fill="#000000" stroke="none">
<path d="M8232 14901 c2 -7 -3 -16 -11 -19 -10 -3 -11 0 -5 9 6 12 5 12 -8 1
-10 -8 -18 -9 -22 -3 -4 6 -14 7 -22 4 -13 -5 -13 -7 -2 -14 10 -7 11 -9 0 -9
-7 0 -10 -5 -6 -12 4 -6 3 -8 -4 -4 -6 3 -14 1 -17 -5 -4 -5 -13 -8 -21 -5 -7
3 -17 -2 -22 -10 -10 -19 -22 -17 -40 5 -8 9 -11 10 -7 3 4 -8 -1 -11 -17 -8
-13 2 -22 9 -20 16 1 6 -2 9 -8 5 -6 -3 -8 -9 -6 -13 2 -4 -15 -7 -39 -8 -24
0 -42 3 -39 8 3 4 1 8 -5 8 -5 0 -15 -8 -21 -17 -9 -15 -10 -14 -5 7 6 23 5
24 -9 7 -9 -12 -16 -14 -21 -7 -3 5 -11 8 -16 5 -5 -4 -9 -1 -9 6 0 7 -6 5
-13 -5 -12 -16 -17 -17 -36 -6 -19 10 -22 9 -16 -1 6 -9 3 -11 -8 -6 -15 6
-34 -8 -37 -28 -1 -5 -3 -12 -6 -14 -2 -2 -1 6 1 19 4 19 2 20 -12 8 -14 -10
-15 -10 -9 0 6 9 3 12 -10 10 -11 -2 -22 -10 -26 -18 -5 -11 -7 -10 -7 6 -1
17 -7 20 -40 20 -21 -1 -37 -4 -35 -7 9 -16 -42 1 -69 22 -32 25 -74 29 -60 6
5 -9 3 -9 -8 -1 -8 6 -22 10 -32 9 -9 -2 -15 1 -12 5 3 5 14 7 25 5 21 -4 36
10 21 19 -5 4 -12 2 -15 -3 -4 -5 -18 -8 -32 -5 -19 3 -24 1 -18 -8 4 -7 -3
-4 -16 7 -13 11 -21 15 -17 9 4 -8 -6 -10 -33 -8 -23 1 -40 -2 -40 -8 0 -5 -7
-7 -16 -4 -8 3 -13 2 -10 -3 3 -4 -3 -16 -13 -25 -12 -11 -21 -13 -25 -7 -4 6
-13 8 -21 5 -8 -4 -12 -11 -8 -18 4 -7 1 -6 -9 1 -12 11 -18 10 -31 -5 -15
-16 -17 -21 -17 -39 0 -5 -5 -1 -11 7 -8 12 -9 10 -4 -7 4 -15 2 -23 -6 -23
-15 0 -59 -47 -51 -54 3 -3 -2 -6 -12 -6 -9 0 -15 -4 -12 -9 3 -4 -6 -13 -20
-20 -32 -14 -41 -14 -26 1 21 21 13 30 -9 9 -13 -11 -18 -24 -14 -32 6 -8 4
-10 -5 -4 -7 4 -16 2 -21 -6 -8 -12 -11 -12 -19 1 -8 11 -9 8 -6 -13 4 -25 3
-27 -10 -16 -12 10 -15 10 -12 -1 2 -7 -3 -15 -11 -18 -9 -3 -11 0 -7 9 4 8
-2 3 -13 -10 -14 -15 -21 -18 -21 -9 0 8 -7 15 -15 15 -10 0 -14 -6 -10 -16 5
-12 3 -13 -6 -4 -15 15 -3 33 19 28 10 -1 26 3 37 11 16 12 17 16 5 27 -9 8
-11 8 -6 0 3 -6 2 -14 -4 -18 -6 -3 -13 1 -16 10 -6 14 -8 13 -21 -5 -8 -11
-19 -18 -24 -15 -5 4 -9 1 -9 -5 0 -6 -5 -8 -12 -4 -9 5 -8 2 1 -9 12 -15 12
-17 -2 -11 -19 7 -60 -13 -52 -26 3 -5 -6 -12 -20 -16 -22 -5 -24 -9 -13 -23
10 -13 10 -14 -2 -3 -17 14 -34 16 -25 2 4 -6 -1 -7 -10 -3 -10 3 -21 0 -26
-8 -7 -11 -9 -11 -9 -1 0 7 -5 10 -10 7 -7 -4 -6 -14 1 -28 l12 -22 -23 20
c-13 11 -20 14 -16 7 6 -10 1 -12 -23 -9 -18 3 -29 1 -25 -4 3 -5 9 -7 13 -5
4 3 13 1 21 -4 10 -6 3 -8 -21 -6 -33 3 -36 1 -33 -20 1 -13 -2 -22 -7 -18
-18 11 -51 -7 -44 -24 3 -9 3 -13 -1 -9 -4 4 -13 -1 -21 -11 -12 -16 -13 -15
-7 3 6 18 4 17 -10 -3 -10 -12 -21 -20 -25 -17 -5 2 -7 -7 -5 -20 1 -14 -2
-23 -6 -20 -5 3 -11 1 -15 -5 -4 -7 -14 -6 -28 2 -21 11 -21 10 -7 -7 14 -17
13 -18 -2 -12 -10 3 -17 3 -15 -1 1 -5 -11 -20 -26 -35 -16 -14 -26 -30 -23
-36 3 -5 -5 -8 -18 -7 -17 2 -23 -1 -19 -10 3 -8 0 -14 -6 -14 -6 0 -11 6 -11
13 0 9 -3 8 -9 -2 -5 -7 -14 -10 -20 -7 -6 4 -11 2 -11 -5 0 -7 -3 -10 -6 -6
-4 3 -21 -5 -39 -18 -17 -14 -35 -22 -38 -18 -10 9 -48 -28 -40 -40 4 -6 1 -7
-7 -2 -8 5 -20 -1 -32 -16 -11 -13 -16 -18 -12 -10 5 9 -2 8 -19 -5 -15 -10
-27 -25 -27 -33 0 -7 -6 -11 -13 -8 -7 3 -23 -10 -36 -29 -13 -19 -27 -34 -32
-34 -5 0 -9 -5 -9 -11 0 -5 5 -7 12 -3 7 4 8 3 4 -4 -4 -6 -14 -8 -23 -5 -11
4 -14 3 -9 -5 4 -7 1 -12 -8 -12 -8 0 -20 -14 -28 -30 -8 -19 -18 -28 -27 -25
-11 4 -11 3 -2 -9 10 -12 8 -16 -10 -21 -17 -6 -19 -9 -8 -16 11 -7 10 -9 -4
-9 -9 0 -16 -5 -15 -12 2 -7 -3 -13 -9 -14 -7 -1 -16 -2 -19 -3 -4 0 0 -9 7
-18 12 -16 12 -17 -1 -6 -10 7 -21 9 -30 3 -8 -5 -19 -5 -25 0 -13 11 -59 -26
-50 -40 3 -5 1 -10 -5 -10 -6 0 -8 -5 -4 -12 5 -9 2 -8 -9 1 -15 12 -17 12
-11 -3 6 -14 -5 -21 -28 -17 -5 0 -8 -9 -9 -21 0 -13 -3 -18 -5 -11 -8 19 -33
3 -29 -18 2 -11 0 -17 -6 -14 -5 4 -9 2 -9 -2 0 -5 -10 -13 -22 -18 -13 -6
-23 -18 -23 -27 0 -9 -4 -20 -9 -25 -5 -4 -6 -3 -2 5 4 6 2 12 -4 12 -6 0 -9
4 -6 8 3 5 -1 9 -9 9 -10 0 -11 -4 -6 -11 15 -18 -14 -50 -39 -43 -17 4 -19 3
-10 -8 14 -17 -3 -30 -45 -34 -8 0 -12 -7 -9 -15 8 -20 -14 -30 -34 -15 -12
10 -12 8 2 -9 16 -19 17 -22 3 -17 -12 5 -15 2 -12 -14 2 -13 0 -19 -6 -15
-14 8 -40 -16 -32 -30 3 -6 2 -8 -2 -3 -5 4 -19 0 -33 -9 -13 -9 -22 -12 -19
-7 3 5 -3 10 -14 10 -10 1 -19 -3 -19 -8 0 -6 5 -7 12 -3 7 5 8 3 3 -6 -6 -10
-11 -9 -23 6 -14 18 -14 18 -10 -2 3 -13 0 -21 -8 -21 -8 0 -14 3 -14 7 0 3
-10 6 -23 6 -17 0 -23 -6 -23 -20 1 -22 -20 -29 -41 -14 -6 5 -14 5 -18 -2 -3
-5 -4 -10 -1 -10 3 0 -2 -9 -11 -20 -10 -11 -23 -20 -30 -20 -12 0 -17 -13
-14 -32 0 -4 -6 -5 -13 -2 -8 3 -12 13 -9 22 4 15 3 15 -6 2 -6 -9 -7 -18 -1
-24 6 -6 -4 -21 -23 -39 -18 -16 -25 -26 -17 -22 10 4 9 2 -2 -8 -10 -8 -14
-18 -10 -22 4 -5 2 -5 -5 -2 -6 4 -14 1 -16 -5 -4 -9 -6 -10 -6 -1 -1 6 4 15
9 18 6 3 10 10 10 15 0 5 -11 -1 -24 -13 -14 -12 -23 -30 -21 -44 1 -12 -1
-22 -4 -21 -3 1 -14 -2 -24 -7 -15 -6 -16 -10 -5 -16 11 -7 10 -10 -1 -21 -8
-7 -11 -8 -8 -3 3 6 -3 11 -13 11 -16 0 -16 -2 -3 -23 14 -21 13 -22 -6 -18
-12 2 -21 -1 -21 -6 0 -6 -5 -7 -12 -3 -7 4 -8 3 -4 -4 4 -6 14 -9 24 -6 14 5
14 3 -2 -10 -11 -9 -26 -16 -33 -16 -7 0 -13 -7 -13 -16 0 -11 -6 -14 -22 -9
-18 5 -20 4 -8 -4 12 -8 12 -11 1 -11 -7 0 -11 -6 -8 -14 4 -10 1 -13 -9 -9
-10 3 -12 0 -9 -10 4 -8 -1 -17 -11 -21 -13 -5 -14 -9 -3 -22 7 -8 8 -14 3
-13 -5 1 -15 1 -23 0 -11 -1 -11 -4 0 -18 13 -15 12 -15 -9 -4 -12 6 -22 8
-21 4 3 -20 -2 -27 -12 -13 -9 13 -10 13 -6 0 2 -8 13 -14 23 -13 10 1 13 0 6
-3 -6 -3 -9 -10 -6 -16 4 -6 -2 -6 -14 1 -30 16 -39 13 -16 -5 15 -12 16 -15
2 -10 -12 4 -16 0 -13 -15 3 -12 0 -17 -7 -13 -6 4 -9 1 -6 -7 3 -8 11 -13 17
-11 7 1 10 -2 7 -7 -3 -5 -15 -7 -25 -4 -14 3 -19 0 -18 -14 1 -10 -4 -17 -11
-15 -9 2 -11 -2 -6 -10 15 -24 14 -48 -2 -48 -9 0 -12 -5 -8 -12 4 -6 3 -8 -4
-4 -5 3 -12 1 -14 -6 -3 -7 -7 -5 -11 6 -4 9 -3 15 2 11 5 -3 12 -1 15 4 11
18 -11 21 -27 3 -10 -11 -14 -30 -11 -51 4 -33 3 -34 -12 -15 -8 10 -13 13 -9
7 3 -7 0 -13 -7 -13 -7 -1 -2 -7 11 -14 l24 -14 -21 -6 c-12 -4 -22 -12 -22
-17 0 -6 6 -7 13 -3 8 6 8 3 -1 -9 -8 -9 -11 -20 -8 -25 3 -5 -1 -9 -8 -9 -8
0 -12 7 -9 16 4 14 4 14 -6 1 -16 -23 -13 -40 6 -33 11 4 14 3 9 -5 -4 -7 -15
-12 -24 -12 -13 0 -13 -2 4 -15 15 -12 15 -14 2 -9 -13 4 -16 1 -14 -18 2 -12
6 -30 9 -38 8 -18 3 -56 -6 -52 -4 1 -10 2 -13 2 -4 0 -1 7 6 15 11 13 10 14
-4 9 -9 -3 -16 -14 -16 -24 0 -21 -23 -32 -39 -19 -8 6 -8 5 -1 -3 14 -17 12
-40 -2 -33 -7 4 -4 -1 6 -9 11 -9 15 -16 9 -16 -6 0 -14 -7 -17 -16 -3 -8 -2
-13 3 -10 5 3 12 -1 15 -10 5 -12 2 -15 -11 -10 -10 4 -14 4 -10 0 4 -4 1 -14
-6 -22 -9 -13 -9 -14 1 -8 6 4 12 3 12 -2 0 -5 -10 -13 -22 -17 -13 -3 -18 -9
-11 -11 7 -3 9 -12 6 -20 -3 -7 2 -17 11 -20 16 -6 23 -25 9 -23 -23 4 -30 -4
-27 -28 3 -25 3 -25 -4 -5 -9 29 -26 30 -30 2 -2 -11 3 -23 12 -26 9 -3 13
-10 10 -15 -2 -5 -13 -3 -24 3 -10 7 -16 16 -13 22 3 5 1 6 -5 3 -12 -8 -10
-32 3 -44 4 -4 5 -2 1 5 -4 6 -3 12 3 12 5 0 9 -9 8 -19 -1 -12 -6 -17 -16
-13 -9 3 -12 1 -7 -6 4 -6 -2 -17 -13 -23 -10 -7 -17 -18 -14 -25 2 -6 -1 -15
-6 -19 -6 -3 -9 -11 -6 -16 4 -5 0 -9 -7 -10 -7 0 -5 -4 5 -8 18 -7 18 -8 1
-21 -11 -9 -15 -10 -10 -2 4 7 2 12 -5 12 -6 0 -9 -8 -6 -20 3 -10 -2 -27 -10
-37 -8 -10 -12 -12 -8 -5 11 21 -4 13 -16 -9 -8 -15 -8 -19 0 -15 6 4 11 3 11
-3 0 -5 -8 -15 -17 -20 -11 -6 -13 -11 -5 -11 7 0 10 -5 7 -10 -4 -6 -11 -8
-16 -5 -5 3 -6 -1 -2 -10 4 -13 8 -14 14 -4 4 8 11 11 14 7 3 -3 -1 -13 -10
-22 -15 -15 -12 -21 9 -17 5 1 4 -5 -4 -13 -15 -19 -24 -21 -14 -4 4 7 3 8 -5
4 -9 -6 -9 -11 1 -24 10 -12 10 -14 1 -8 -19 11 -15 -5 5 -21 11 -8 12 -12 3
-11 -7 2 -16 -3 -19 -11 -3 -9 0 -11 8 -6 10 6 12 4 7 -8 -3 -9 -1 -19 5 -23
6 -4 8 -3 4 4 -3 6 -2 13 3 16 11 7 9 -13 -2 -31 -5 -8 -3 -13 3 -13 6 0 9 -4
5 -9 -3 -5 -1 -12 4 -16 6 -3 7 -13 4 -21 -3 -9 0 -20 8 -25 10 -6 10 -9 2 -9
-7 0 -13 -5 -13 -11 0 -5 6 -7 13 -3 6 4 4 -2 -6 -13 -17 -19 -17 -22 -2 -37
15 -15 12 -21 -9 -17 -5 1 -4 -5 3 -13 7 -9 16 -14 20 -12 4 3 13 1 21 -5 9
-5 10 -9 3 -9 -11 0 -12 -17 -1 -35 3 -5 2 -19 -2 -30 -5 -13 -2 -27 9 -39 9
-11 10 -16 4 -12 -9 5 -13 0 -13 -13 0 -10 6 -22 13 -24 6 -3 3 -6 -7 -6 -20
-1 -20 -1 0 -15 17 -13 17 -15 3 -21 -18 -7 -15 -44 5 -57 8 -6 8 -8 -1 -8
-13 0 -12 -18 1 -39 6 -10 5 -12 -2 -7 -13 8 -15 -4 -6 -28 3 -8 11 -13 18
-10 13 5 15 -34 2 -54 -4 -7 -2 -12 3 -12 6 0 11 -20 11 -45 0 -29 4 -45 13
-45 9 0 9 -2 -1 -9 -11 -7 -11 -9 1 -14 10 -4 13 -14 9 -32 -3 -17 0 -30 9
-36 11 -7 11 -9 1 -9 -7 0 -10 -5 -7 -10 4 -6 10 -8 15 -5 5 3 12 0 16 -6 4
-7 3 -9 -3 -6 -12 8 -22 -12 -16 -31 3 -6 10 -9 16 -5 7 3 3 -4 -7 -16 -17
-18 -17 -21 -3 -15 10 3 17 1 17 -5 0 -6 -5 -11 -12 -11 -6 0 -3 -10 8 -22 10
-12 14 -18 7 -15 -6 4 -14 3 -18 -3 -3 -5 -1 -10 4 -10 6 0 11 -7 11 -15 0 -8
5 -15 11 -15 5 0 7 6 3 13 -5 9 -4 9 5 1 7 -7 15 -43 17 -80 2 -38 8 -70 14
-72 5 -2 10 -12 10 -22 0 -10 4 -21 9 -24 5 -3 9 -22 9 -42 0 -22 7 -41 19
-50 10 -9 12 -13 6 -9 -9 4 -11 1 -7 -9 3 -9 10 -14 14 -11 13 8 18 -17 16
-78 -1 -31 2 -57 6 -57 4 0 8 -6 8 -14 0 -7 7 -26 14 -42 8 -15 13 -31 10 -36
-3 -4 0 -8 6 -8 6 0 10 -10 9 -22 -1 -13 4 -36 11 -53 8 -16 14 -34 15 -40 1
-5 10 -28 20 -50 10 -22 19 -51 20 -65 1 -14 4 -26 5 -27 1 -2 3 -6 4 -10 1
-5 7 -17 13 -28 10 -19 18 -78 14 -118 -1 -18 -14 -18 -96 0 -18 4 -44 5 -127
2 -16 0 -28 -5 -28 -10 0 -6 -4 -8 -9 -4 -11 6 -81 -25 -81 -37 0 -4 -4 -8
-10 -8 -15 0 -50 -33 -50 -47 0 -7 -4 -13 -8 -13 -7 0 -45 -57 -48 -72 -1 -5
-3 -10 -4 -13 -1 -3 -3 -8 -5 -12 -1 -5 -4 -15 -8 -23 -15 -41 -22 -88 -35
-250 -8 -93 1 -205 22 -275 15 -51 92 -210 119 -248 13 -18 30 -45 37 -62 8
-16 18 -32 21 -35 13 -11 38 -68 32 -74 -4 -3 -2 -6 4 -6 8 0 30 -35 38 -60 6
-19 22 -50 40 -80 12 -19 23 -38 24 -42 3 -18 37 -83 44 -86 4 -2 7 -9 7 -16
0 -15 58 -127 80 -154 8 -10 16 -25 18 -33 2 -8 8 -16 13 -17 5 -2 7 -8 3 -13
-3 -5 2 -12 10 -15 9 -3 14 -10 11 -14 -3 -4 5 -19 16 -34 11 -14 17 -26 12
-26 -4 0 -3 -4 2 -8 16 -12 35 -50 35 -72 0 -11 5 -20 10 -20 6 0 10 -8 10
-18 0 -10 5 -23 11 -29 6 -6 11 -17 13 -24 5 -30 18 -59 26 -59 4 0 10 -10 14
-22 6 -25 99 -128 115 -128 6 0 19 -10 31 -22 11 -12 20 -19 20 -15 0 4 10 2
23 -5 25 -13 40 -18 77 -23 14 -2 25 -4 25 -5 0 -1 10 -3 23 -6 12 -2 22 0 22
6 0 5 6 7 14 4 8 -3 17 -1 20 5 4 6 13 8 20 5 7 -3 22 3 31 13 10 10 21 17 24
16 3 -2 25 15 48 37 26 24 48 37 57 34 17 -6 46 -58 46 -81 0 -7 4 -13 8 -13
4 0 8 -10 9 -22 1 -11 7 -24 14 -28 6 -4 8 -13 5 -19 -4 -6 -2 -11 3 -11 6 0
11 -9 11 -19 0 -11 14 -50 31 -87 16 -38 28 -76 26 -86 -3 -10 -2 -16 3 -13 4
2 11 -14 15 -38 4 -23 9 -49 11 -57 5 -29 15 -95 19 -122 1 -14 5 -31 8 -35 3
-5 9 -31 13 -58 3 -27 8 -59 9 -70 8 -46 24 -176 31 -235 9 -82 11 -357 3
-426 -4 -38 -10 -111 -13 -163 -3 -51 -7 -94 -8 -95 -15 -9 -69 -56 -68 -61 0
-3 -3 -5 -6 -4 -3 0 -15 -13 -27 -28 -12 -15 -26 -31 -32 -35 -5 -4 -6 -8 -2
-8 5 0 1 -7 -8 -16 -9 -9 -24 -29 -33 -43 -9 -14 -22 -30 -29 -34 -7 -4 -13
-15 -13 -22 0 -8 -3 -15 -8 -15 -4 0 -16 -20 -27 -45 -11 -25 -23 -45 -27 -45
-5 0 -8 -7 -8 -15 0 -15 -13 -32 -78 -103 -19 -20 -43 -50 -53 -67 -11 -16
-19 -26 -19 -21 0 6 -13 -11 -29 -36 -28 -43 -66 -75 -84 -70 -4 1 -21 -5 -37
-13 -17 -9 -30 -13 -30 -10 0 3 -10 -1 -22 -9 -19 -11 -70 -27 -93 -28 -2 0
-25 -6 -51 -14 -25 -7 -50 -11 -54 -9 -5 3 -11 2 -14 -3 -2 -4 -22 -9 -42 -10
-21 -2 -43 -7 -49 -12 -7 -6 -15 -7 -18 -4 -3 3 -12 2 -19 -2 -7 -5 -21 -9
-30 -10 -10 -1 -20 -3 -23 -4 -9 -4 -25 -7 -45 -9 -12 0 -20 -8 -20 -18 0 -12
-3 -14 -8 -6 -7 11 -34 8 -97 -11 -5 -1 -35 -10 -65 -19 -30 -9 -66 -19 -80
-21 -14 -3 -26 -5 -27 -7 -7 -5 -97 -23 -105 -21 -5 1 -8 -3 -8 -10 0 -6 -3
-8 -7 -5 -3 4 -12 2 -20 -4 -7 -6 -13 -9 -13 -5 0 3 -16 0 -35 -8 -19 -8 -35
-12 -35 -8 0 4 -4 3 -8 -3 -10 -13 -49 -35 -64 -35 -6 0 -19 -6 -27 -14 -49
-42 -242 -131 -310 -142 -14 -3 -34 -7 -43 -10 -10 -3 -30 -7 -45 -10 -48 -8
-157 -46 -258 -89 -43 -18 -79 -29 -87 -27 -5 1 -8 -2 -8 -8 0 -6 -3 -9 -7 -9
-5 1 -10 0 -13 -1 -3 -1 -12 -3 -20 -5 -8 -2 -26 -7 -40 -10 -14 -3 -31 -7
-38 -9 -8 -1 -18 -9 -23 -17 -5 -8 -9 -11 -9 -7 0 7 -155 -32 -200 -50 -32
-13 -62 -24 -75 -28 -5 -1 -37 -12 -70 -24 -33 -12 -66 -22 -72 -22 -7 -1 -13
-5 -13 -10 0 -4 -3 -7 -7 -6 -8 3 -66 -17 -95 -33 -10 -5 -25 -9 -33 -9 -8 0
-15 -5 -15 -12 0 -6 -3 -9 -6 -6 -3 4 -27 -3 -52 -14 -26 -10 -56 -23 -67 -28
-11 -4 -37 -16 -59 -25 -21 -9 -44 -18 -50 -20 -13 -2 -33 -9 -101 -35 -27
-11 -69 -25 -93 -32 -23 -7 -42 -16 -42 -20 0 -5 -8 -8 -18 -8 -10 0 -22 -3
-26 -7 -3 -4 -12 -8 -19 -9 -7 -1 -56 -22 -109 -48 -53 -25 -101 -46 -107 -46
-6 0 -11 -4 -11 -10 0 -5 -11 -12 -25 -16 -14 -3 -25 -10 -25 -15 0 -5 -5 -9
-11 -9 -6 0 -24 -9 -40 -21 -16 -11 -29 -18 -29 -14 0 3 -17 -6 -37 -20 -21
-14 -43 -25 -50 -25 -7 0 -13 -4 -13 -10 0 -5 -6 -10 -12 -10 -7 0 -42 -15
-78 -33 -59 -31 -108 -49 -135 -51 -7 -1 -11 -624 -13 -1844 l-2 -1842 6647 2
c5904 3 6648 5 6644 18 -3 8 -5 25 -5 38 -1 12 -3 22 -6 22 -5 0 -8 18 -13 72
-1 13 -6 26 -12 30 -6 5 -5 8 3 8 9 0 10 5 2 19 -13 26 -13 34 2 25 7 -5 8 -3
3 6 -5 8 -9 41 -10 75 -1 34 -5 67 -9 74 -4 6 -1 11 6 11 9 0 9 3 -2 10 -10 6
-11 10 -3 10 9 0 10 7 3 24 -5 13 -6 27 -3 30 3 3 0 12 -7 21 -7 8 -8 15 -3
15 5 0 9 11 9 25 0 14 -4 25 -9 25 -5 0 -3 8 4 17 10 11 10 14 2 9 -12 -7 -19
24 -14 63 2 8 -3 10 -11 6 -10 -6 -10 -5 -2 4 9 10 9 21 0 44 -6 18 -14 34
-18 37 -4 3 -9 19 -12 35 -2 17 -5 30 -6 30 -3 0 -10 50 -13 96 -2 25 -7 51
-11 57 -4 7 -5 16 -1 21 3 5 1 12 -4 15 -8 5 -6 204 2 266 2 14 -1 31 -6 38
-5 6 -6 12 -1 12 5 0 2 5 -6 10 -11 7 -11 10 -2 10 8 0 10 5 6 12 -4 7 -9 26
-11 43 -5 51 -6 55 -14 55 -4 0 -6 9 -4 20 2 11 0 20 -5 20 -4 0 -6 9 -3 20 3
11 1 20 -4 20 -5 0 -9 8 -10 18 -3 40 -8 62 -13 62 -3 0 -7 17 -8 37 -2 21 -7
40 -11 43 -5 3 -7 13 -6 22 2 9 -4 19 -12 22 -8 3 -12 10 -8 15 3 5 0 13 -6
16 -5 4 -8 13 -5 21 3 7 1 16 -4 19 -6 4 -10 15 -10 26 0 10 -4 19 -8 19 -4 0
-9 19 -10 43 -3 46 -20 98 -36 109 -6 4 -11 13 -11 20 -2 27 -18 68 -27 68 -5
0 -6 5 -3 10 3 6 0 13 -9 16 -8 3 -12 12 -9 20 3 8 0 14 -5 14 -10 0 -23 27
-28 60 -2 8 -12 22 -22 30 -21 18 -51 67 -33 56 14 -9 3 23 -16 45 -7 9 -10
19 -6 22 3 4 1 7 -5 7 -6 0 -9 9 -7 20 2 11 0 20 -6 20 -5 0 -9 9 -9 20 0 12
-5 17 -13 14 -8 -3 -20 3 -28 12 -12 16 -12 17 1 9 12 -7 13 -6 3 7 -7 8 -14
27 -15 42 -1 14 -7 26 -13 26 -5 0 -4 4 4 9 11 7 11 12 0 32 -7 13 -12 27 -11
32 1 4 -1 7 -6 7 -4 0 -8 18 -9 40 -2 45 -51 125 -83 135 -11 3 -20 11 -20 16
0 5 -9 9 -20 9 -11 0 -20 5 -20 10 0 6 -5 10 -11 10 -5 0 -8 -4 -5 -9 4 -5 -3
-7 -14 -4 -10 3 -32 22 -47 42 -15 20 -31 38 -35 39 -5 2 -6 8 -2 13 3 5 -1 9
-8 9 -8 0 -25 18 -38 39 -14 21 -28 37 -32 34 -5 -2 -8 2 -8 10 0 16 -27 31
-47 28 -7 -1 -13 3 -13 9 0 6 -5 8 -12 4 -6 -4 -8 -3 -4 4 3 6 2 13 -4 17 -6
4 -8 11 -5 16 4 5 2 9 -4 9 -6 0 -21 11 -34 24 -14 14 -28 22 -31 19 -3 -4 -6
-1 -6 6 0 7 -4 10 -9 7 -5 -3 -25 10 -44 29 -19 19 -37 31 -41 28 -3 -3 -6 -2
-6 4 0 6 -13 16 -30 23 -16 7 -27 16 -24 21 3 5 -2 9 -10 9 -9 0 -16 9 -16 21
0 11 -4 17 -10 14 -6 -3 -10 -3 -10 2 0 4 -15 17 -33 27 -36 22 -34 21 -64 31
-13 4 -23 11 -23 16 0 5 -7 9 -15 9 -8 0 -15 4 -15 9 0 5 -11 12 -25 15 -14 4
-23 10 -21 15 3 5 -4 17 -16 27 -14 12 -18 14 -13 4 8 -13 6 -13 -8 -1 -9 7
-24 11 -32 7 -8 -3 -15 -1 -15 5 0 6 -4 7 -10 4 -6 -3 -10 -1 -10 4 0 6 -11
11 -25 11 -14 0 -25 5 -25 11 0 6 -7 8 -16 5 -11 -4 -15 -2 -11 8 4 9 0 12
-12 9 -10 -2 -25 3 -34 11 -8 9 -23 16 -31 16 -9 0 -16 5 -16 11 0 5 -4 7 -10
4 -9 -5 -15 15 -11 38 1 7 -15 11 -32 8 -5 -1 -6 3 -3 8 4 5 2 12 -4 16 -5 3
-10 2 -10 -4 0 -13 -78 -5 -96 10 -8 6 -14 8 -14 4 0 -5 -8 2 -19 13 -10 12
-21 19 -25 15 -3 -3 -6 -1 -6 6 0 7 -5 9 -12 5 -10 -6 -10 -5 -1 7 19 24 16
31 -25 55 -43 26 -159 57 -175 47 -6 -3 -7 -1 -3 5 4 7 1 12 -7 12 -8 0 -20 7
-27 15 -7 8 -16 12 -21 9 -5 -3 -9 -2 -9 3 0 10 -94 54 -120 56 -11 1 -20 5
-20 9 0 4 -3 7 -7 6 -17 -4 -93 14 -93 22 0 5 -9 7 -20 5 -11 -2 -20 0 -20 5
0 5 -15 12 -32 15 -18 4 -44 12 -58 18 -14 6 -27 11 -30 12 -3 1 -18 7 -34 14
-15 6 -39 12 -52 13 -13 1 -24 6 -24 11 0 4 -4 6 -9 2 -5 -3 -12 -1 -16 5 -4
6 -11 8 -16 5 -5 -4 -9 -2 -9 3 0 5 -6 9 -12 10 -19 1 -50 9 -81 21 -16 6 -33
9 -38 5 -5 -3 -9 0 -9 5 0 6 -9 11 -20 11 -11 0 -20 5 -20 11 0 5 -4 8 -9 4
-5 -3 -15 0 -23 7 -7 7 -24 15 -38 17 -14 1 -37 9 -52 17 -16 8 -28 11 -28 7
0 -5 -4 -3 -8 2 -7 10 -61 33 -96 40 -10 2 -30 12 -43 21 -14 9 -22 11 -18 4
5 -7 -2 -6 -16 3 -23 14 -64 27 -83 26 -5 -1 -13 6 -18 15 -5 9 -13 14 -19 11
-5 -4 -9 -1 -9 5 0 6 -4 8 -10 5 -6 -3 -10 -1 -10 4 0 6 -3 10 -7 9 -15 -3
-103 35 -103 44 0 4 -9 5 -20 3 -12 -2 -23 2 -27 10 -3 8 -9 12 -14 9 -5 -3
-9 -1 -9 5 0 5 -9 8 -20 6 -11 -2 -20 0 -20 4 0 9 -64 26 -87 24 -7 0 -13 3
-13 9 0 5 -4 7 -9 4 -5 -3 -14 1 -21 9 -7 8 -21 15 -31 15 -11 0 -19 4 -19 9
0 5 -10 13 -22 17 -20 6 -73 39 -88 54 -7 7 -34 22 -168 90 -67 34 -124 66
-128 71 -3 5 -14 9 -25 9 -10 0 -19 5 -19 10 0 6 -6 10 -14 10 -8 0 -33 11
-57 24 -24 14 -46 23 -51 20 -4 -3 -8 -1 -8 4 0 10 -79 37 -95 33 -5 -1 -7 0
-3 4 3 4 -2 15 -12 25 -11 11 -22 35 -26 54 -3 20 -10 36 -14 36 -4 0 -10 13
-13 29 -3 15 -17 42 -31 59 -15 16 -26 35 -26 41 0 6 -7 11 -15 11 -9 0 -12 6
-8 17 3 10 3 15 -1 11 -9 -7 -76 64 -76 81 0 6 -5 11 -12 11 -6 0 -9 3 -6 6 3
3 -4 16 -16 29 -30 33 -38 45 -65 95 -13 25 -34 55 -48 68 -13 13 -21 27 -19
31 3 4 -8 23 -25 42 -16 19 -32 41 -34 51 -3 9 -16 23 -29 31 -17 12 -22 24
-21 51 1 21 -3 36 -9 36 -6 0 -4 5 4 10 11 7 11 10 2 10 -7 0 -10 5 -7 11 4 5
-1 19 -11 30 -11 12 -13 19 -5 19 7 0 9 5 5 11 -4 7 -7 25 -6 40 0 16 -4 29
-10 29 -7 0 -7 4 1 13 6 8 8 17 4 20 -3 4 -1 7 5 7 9 0 9 6 0 25 -6 13 -15 22
-20 18 -6 -3 -5 4 1 14 6 11 7 23 4 27 -3 3 0 6 8 6 8 1 3 7 -11 15 -17 9 -20
14 -9 15 13 0 15 8 9 44 -5 36 -3 46 12 57 10 7 18 18 18 24 0 5 37 49 83 97
45 47 92 99 104 115 12 16 33 41 45 54 13 14 34 39 48 57 14 17 31 32 38 32 7
0 11 4 8 9 -3 5 1 14 9 21 8 7 15 18 15 24 0 6 9 19 20 29 12 10 19 21 16 25
-2 4 2 13 10 20 8 7 14 10 14 7 0 -3 6 0 14 7 8 7 12 16 9 20 -2 4 7 19 21 33
14 14 26 28 26 30 0 12 75 135 82 135 4 0 8 6 8 14 0 8 3 16 8 18 10 4 62 86
62 98 0 5 5 10 10 10 6 0 10 7 10 16 0 9 5 12 12 8 8 -5 9 -2 5 9 -3 10 -2 17
3 17 6 0 10 6 10 14 0 7 8 31 17 52 9 22 17 41 18 44 0 3 6 15 13 28 7 12 9
22 5 22 -4 0 -3 4 3 8 10 6 67 116 70 135 1 4 3 10 4 15 1 4 2 10 1 15 0 4 3
7 8 7 5 0 8 8 7 17 -2 10 5 31 16 48 10 16 18 40 18 52 0 12 5 25 11 29 6 3 9
17 6 30 -2 13 0 24 5 24 5 0 8 16 6 35 -2 24 3 39 12 45 8 5 11 10 6 10 -5 0
-4 6 2 13 10 11 13 24 26 85 1 8 8 17 15 22 9 5 10 9 2 11 -13 5 5 80 23 91 7
5 7 8 1 8 -6 0 -11 16 -12 35 0 23 3 33 11 28 6 -4 5 0 -2 9 -10 12 -10 18 -1
23 8 6 7 10 -2 16 -8 5 -9 9 -3 9 13 0 13 62 -1 72 -6 5 -6 8 1 8 12 0 12 29
0 48 -4 7 -3 19 3 26 6 7 8 16 4 20 -11 10 -12 36 -2 36 11 0 7 23 -6 32 -6 5
-5 8 4 8 11 0 11 3 1 15 -7 9 -8 15 -2 15 12 0 11 18 -2 39 -6 9 -5 12 2 7 12
-7 11 42 -2 63 -6 9 -5 12 1 8 6 -4 10 13 12 41 1 26 3 61 5 77 2 17 4 34 5
38 1 5 5 6 10 3 5 -4 8 2 7 11 -2 10 3 27 11 39 7 11 11 23 8 26 -4 3 -7 43
-9 89 -2 46 -7 92 -11 101 -4 9 -4 21 -1 27 4 5 2 12 -4 16 -5 3 -10 11 -10
16 0 6 4 8 10 4 5 -3 3 7 -5 21 -8 15 -12 31 -9 36 3 4 0 8 -6 8 -6 0 -8 4 -5
10 3 5 1 18 -4 28 -10 19 -19 54 -27 105 -2 15 -13 46 -25 70 -20 41 -30 70
-31 95 -1 6 -5 12 -10 12 -4 0 -8 5 -8 11 0 5 4 7 10 4 6 -3 7 1 4 9 -3 9 -9
16 -13 16 -4 0 -8 10 -9 23 -4 37 -7 51 -16 66 -7 11 -6 12 5 6 12 -8 12 -6 0
8 -7 9 -18 14 -25 10 -6 -4 -5 1 3 10 11 14 11 20 0 34 -8 10 -9 14 -2 10 8
-5 11 0 10 13 -1 11 -5 20 -10 20 -5 0 -4 7 4 16 8 9 9 18 3 22 -5 4 -9 16 -8
27 8 84 4 114 -14 107 -10 -3 -13 -1 -8 6 3 6 2 13 -4 17 -6 4 -8 11 -5 16 4
5 1 9 -5 9 -6 0 -8 5 -5 10 3 6 1 10 -5 10 -6 0 -8 5 -5 10 3 6 0 10 -7 10 -9
0 -9 3 2 10 10 6 11 10 3 10 -7 0 -13 5 -13 11 0 5 6 7 13 3 7 -5 7 -1 -2 10
-8 10 -16 32 -17 49 -1 18 -2 32 -3 32 -2 0 -3 28 -4 62 -1 33 1 59 4 57 10
-6 10 83 -1 110 -6 16 -6 27 0 31 6 4 7 13 2 23 -10 20 -8 81 3 132 5 19 8 49
8 67 0 21 4 30 11 26 6 -4 5 0 -2 9 -9 11 -10 18 -2 23 6 3 8 10 5 15 -3 5 -1
11 5 15 14 9 13 48 -2 64 -10 11 -10 13 0 7 6 -4 12 -2 12 3 0 6 5 11 11 11 8
0 7 -6 -2 -17 -11 -15 -11 -16 1 -6 16 15 23 63 9 63 -6 0 -8 -4 -4 -9 3 -5 0
-13 -7 -17 -7 -4 -10 -4 -6 1 4 4 3 14 -4 22 -6 8 -7 13 -2 11 5 -2 11 2 12 7
2 6 9 16 15 24 8 10 8 13 1 8 -6 -4 -16 5 -23 21 -10 25 -10 26 4 8 8 -11 18
-16 22 -13 3 4 3 7 -2 7 -4 0 -2 7 5 15 11 13 10 14 -6 8 -17 -6 -17 -5 -5 10
7 9 10 17 6 17 -5 0 -1 8 8 18 14 15 15 19 2 19 -8 0 -11 -5 -8 -10 4 -6 1 -7
-7 -2 -10 6 -9 11 4 21 12 8 13 13 5 16 -7 2 -13 12 -15 21 -1 9 2 15 7 11 5
-3 9 -1 9 5 0 5 -6 12 -12 14 -8 4 -7 6 4 6 9 1 19 -5 22 -11 3 -7 4 -4 3 7
-1 11 -9 23 -17 27 -13 6 -13 7 1 7 13 1 16 11 15 50 -1 39 2 47 14 43 13 -5
13 -3 1 11 -9 11 -10 17 -2 17 6 0 11 5 11 11 0 5 -4 7 -10 4 -5 -3 -10 -1
-10 4 0 6 7 11 16 11 12 0 14 4 7 13 -6 6 -9 20 -8 30 2 9 -2 17 -8 17 -7 0
-5 5 3 10 8 5 10 10 4 10 -17 0 -24 24 -12 41 8 11 9 11 5 -3 -3 -9 0 -19 8
-22 16 -6 11 15 -14 54 -14 21 -14 23 -1 16 8 -4 6 0 -4 8 -12 9 -15 16 -7 16
8 0 11 10 8 28 -2 15 -2 22 0 15 2 -6 11 -14 19 -17 12 -4 12 -2 4 14 -6 11
-7 20 -3 20 4 0 1 5 -7 10 -13 9 -13 10 0 10 13 0 13 1 0 10 -12 8 -12 10 -1
10 8 0 11 7 8 20 -3 11 0 18 6 17 6 -1 12 7 14 18 3 11 7 27 10 35 3 8 6 18 5
22 -1 4 5 5 13 1 12 -4 13 -8 4 -19 -10 -12 -8 -13 7 -8 18 5 18 5 2 -9 -10
-8 -15 -17 -11 -20 6 -7 53 42 53 56 0 5 6 5 13 1 6 -4 8 -3 4 1 -13 15 -39
15 -33 0 3 -8 0 -17 -7 -21 -7 -4 -9 -4 -5 1 4 4 3 14 -3 22 -9 10 -8 13 1 13
10 0 10 3 0 15 -11 13 -10 14 4 9 9 -3 16 -10 16 -14 0 -12 33 -5 38 8 2 8 -3
10 -14 5 -16 -6 -17 -5 -4 9 8 9 20 13 25 10 6 -3 4 2 -4 11 -12 16 -12 17 5
10 17 -6 17 -5 5 10 -12 15 -11 17 5 17 16 0 16 2 4 9 -8 6 -18 7 -23 4 -5 -3
-3 4 4 15 7 12 18 18 24 14 5 -3 4 1 -3 10 -10 13 -10 19 2 31 9 8 13 24 11
36 -2 12 0 19 5 16 4 -3 15 1 23 10 13 13 16 13 21 -1 8 -21 26 -8 27 19 0 21
1 21 8 2 5 -11 7 -23 5 -26 -2 -3 3 -6 11 -6 15 0 16 18 1 29 -5 3 -9 20 -9
37 0 26 -3 29 -16 19 -9 -7 -13 -9 -9 -4 4 5 3 17 -2 27 -8 13 -6 19 8 22 12
3 13 5 2 6 -8 0 -21 10 -28 22 -12 19 -11 20 10 14 13 -3 18 -3 13 2 -14 10
-18 63 -6 63 5 0 12 -6 14 -12 2 -7 3 1 1 17 -3 27 -2 28 10 12 11 -14 15 -15
19 -4 3 8 0 20 -6 27 -9 10 -9 11 1 6 7 -5 12 -1 12 10 0 16 1 16 20 -1 11
-10 20 -13 20 -7 0 7 -5 12 -12 12 -6 0 -9 2 -6 6 3 3 2 21 -2 40 -5 21 -4 34
2 34 6 0 4 8 -3 17 -12 15 -12 16 6 9 16 -6 18 -5 8 5 -7 7 -13 21 -13 32 0
11 -4 15 -12 11 -7 -4 -8 -3 -4 5 4 6 12 9 17 6 14 -10 10 16 -10 62 -15 32
-16 41 -5 36 8 -3 12 -9 9 -13 -3 -4 2 -13 10 -20 10 -9 15 -9 15 -1 0 6 -4
11 -8 11 -5 0 -9 7 -9 15 0 10 6 14 16 10 11 -4 13 -3 6 4 -6 6 -25 12 -43 14
-18 2 -35 7 -40 11 -4 4 -2 7 3 6 20 -4 35 0 35 10 0 5 -6 8 -12 6 -7 -1 -10
-1 -5 1 4 3 4 10 0 16 -4 7 -1 7 9 -1 20 -16 35 2 19 22 -6 7 -12 22 -14 33
-2 12 -9 29 -17 39 -8 10 -10 15 -4 11 6 -3 21 5 32 18 14 16 28 23 39 19 13
-4 15 -3 5 4 -8 5 -13 12 -13 16 3 18 -1 19 -8 1 -6 -13 -8 -2 -8 35 0 30 3
47 6 37 6 -17 8 -17 20 -4 13 17 12 47 -4 60 -6 5 -5 7 3 5 8 -2 14 -8 14 -13
0 -6 4 -18 9 -27 6 -10 5 -19 -1 -23 -6 -4 -8 -10 -5 -15 3 -4 -3 -7 -12 -6
-9 0 -18 -6 -21 -14 -4 -13 -3 -13 10 -2 11 9 18 10 23 2 3 -6 11 -8 16 -4 6
4 6 11 -1 19 -8 9 -8 15 0 20 7 4 7 12 0 24 -9 18 -4 31 12 31 5 0 6 -6 2 -12
-5 -8 -1 -8 12 2 29 22 30 24 12 17 -10 -4 -18 -2 -18 5 0 6 -6 5 -17 -3 -15
-12 -16 -12 -10 4 4 10 7 21 7 23 0 3 3 3 8 1 4 -3 8 6 8 19 1 13 -2 24 -7 24
-5 0 -8 -3 -7 -7 5 -21 -14 -49 -34 -50 -13 0 -17 1 -10 4 6 3 10 9 7 14 -4 5
0 6 8 3 8 -3 17 2 21 12 5 12 2 15 -11 10 -17 -6 -17 -5 0 8 14 11 15 15 3 25
-7 6 -21 9 -30 5 -10 -4 -16 -1 -16 7 0 7 3 9 6 6 13 -12 43 13 39 32 -2 14 1
18 10 14 15 -5 16 -28 2 -49 -9 -16 23 -28 37 -14 8 8 6 9 -6 5 -10 -4 -18 -3
-18 3 0 6 8 13 18 15 16 4 16 5 0 6 -18 1 -14 28 6 44 6 5 1 5 -11 2 -18 -5
-22 -3 -17 9 3 9 10 13 15 10 5 -3 6 2 3 10 -8 22 -21 20 -29 -3 -3 -11 -13
-22 -22 -25 -13 -5 -14 -4 -4 8 7 8 8 16 4 18 -4 3 -2 3 5 2 21 -6 5 48 -20
69 -19 15 -20 17 -3 9 11 -5 27 -7 35 -5 13 4 13 3 0 -6 -9 -7 -10 -11 -3 -11
7 0 10 -9 8 -21 -4 -17 -2 -19 11 -9 11 10 12 16 3 26 -6 8 -8 14 -4 14 4 0 2
6 -4 13 -6 8 -7 18 -3 23 4 4 0 3 -8 -3 -11 -8 -20 -9 -30 -2 -13 9 -13 10 0
6 18 -5 44 19 35 33 -3 5 0 10 7 10 10 0 10 2 -1 9 -8 5 -10 14 -6 22 4 8 -6
-1 -23 -18 -25 -27 -30 -29 -29 -14 0 11 4 18 9 15 4 -2 12 5 18 16 6 11 7 20
3 20 -4 0 -3 4 3 8 8 5 5 13 -8 27 -16 16 -18 17 -13 2 4 -10 2 -17 -4 -17 -6
0 -11 5 -11 10 0 6 -4 10 -10 10 -18 0 -10 -19 11 -25 17 -6 19 -9 8 -17 -10
-7 -9 -8 6 -3 15 5 17 3 8 -6 -6 -6 -17 -8 -25 -3 -7 5 -22 8 -33 7 -16 -1
-16 -1 -2 3 9 3 17 10 17 15 0 13 -13 11 -40 -8 -17 -12 -21 -13 -13 -3 6 8
14 31 16 50 3 19 6 37 6 40 1 3 5 -2 10 -10 6 -8 7 -19 3 -25 -10 -16 -11 -36
-1 -29 5 3 7 9 4 14 -3 4 0 10 6 12 9 3 9 9 1 25 -10 18 -27 22 -52 13 -3 -1
-8 -2 -12 -1 -5 0 -8 -3 -8 -9 0 -5 -9 -1 -20 10 -25 25 -26 37 -2 19 14 -11
13 -10 -2 9 -11 12 -24 22 -30 22 -6 0 -4 -5 4 -11 13 -9 13 -10 0 -6 -8 2
-15 14 -14 25 0 18 -2 20 -14 9 -13 -10 -14 -9 -4 10 17 32 -6 43 -30 14 -15
-19 -19 -21 -24 -7 -3 8 -4 21 -1 28 3 8 6 6 6 -5 1 -10 5 -16 11 -12 5 3 6
15 1 28 -9 24 -4 50 8 43 4 -3 8 1 8 8 0 11 -4 12 -18 3 -10 -6 -17 -13 -17
-16 2 -19 -4 -28 -18 -28 -14 0 -14 2 2 14 12 8 13 13 4 13 -8 0 -4 8 10 20
13 11 28 20 33 20 6 0 8 3 4 6 -3 4 -22 -3 -41 -14 -30 -18 -35 -18 -40 -5 -3
8 -3 20 1 26 4 7 -2 5 -12 -3 -14 -11 -19 -12 -22 -2 -3 6 -8 10 -13 7 -4 -3
-14 3 -21 13 -13 15 -12 16 3 4 14 -11 18 -10 27 6 6 11 7 22 4 26 -3 3 -1 6
6 6 7 0 10 -7 7 -18 -4 -13 -1 -19 9 -19 10 0 13 6 10 17 -3 11 4 21 20 30 24
13 34 30 17 30 -5 0 -9 7 -9 15 0 18 13 20 20 3 4 -10 6 -10 6 -1 1 11 -47 42
-66 44 -5 0 -10 3 -13 6 -3 4 0 4 5 1 14 -8 38 19 24 27 -6 4 -8 14 -5 22 6
16 -10 43 -24 43 -5 0 -11 -8 -13 -17 -4 -17 -5 -17 -6 -1 -1 10 12 24 32 33
21 11 26 11 15 2 -15 -12 -15 -14 3 -25 10 -7 18 -18 16 -25 -1 -6 4 -11 11
-9 13 2 16 -10 5 -21 -3 -4 -12 1 -19 11 -8 9 -14 12 -14 5 0 -6 5 -15 10 -18
8 -5 7 -11 -1 -21 -8 -10 -8 -14 0 -14 21 0 26 -2 38 -12 8 -7 17 -3 29 11 10
11 22 17 27 14 6 -4 7 -1 2 6 -5 9 -11 9 -17 3 -6 -6 -17 -8 -24 -5 -8 3 -21
0 -29 -7 -20 -16 -19 -1 0 20 17 19 29 64 16 55 -5 -3 -11 2 -14 10 -4 9 -1
12 9 8 7 -3 14 1 14 8 0 7 -3 9 -6 6 -11 -10 -45 13 -38 25 4 6 3 8 -4 4 -13
-8 -26 29 -16 45 4 8 3 9 -4 5 -7 -4 -12 -15 -12 -24 -1 -15 -2 -15 -11 1 -6
10 -8 26 -5 35 5 13 3 13 -9 -2 -8 -11 -15 -14 -15 -7 0 7 -5 9 -11 5 -7 -4
-1 -15 17 -31 16 -13 23 -22 16 -18 -7 4 -12 3 -11 -2 1 -4 0 -11 -1 -15 -1
-5 -3 -14 -4 -20 -2 -19 -44 -18 -52 1 -12 27 -13 41 -2 41 6 0 8 -7 4 -15 -3
-8 3 -19 14 -25 28 -15 38 -12 16 5 -20 15 -20 15 0 15 12 0 21 7 21 15 0 8
-6 15 -13 15 -11 0 -24 21 -23 36 0 4 -5 11 -13 16 -9 6 -5 7 12 3 21 -5 23
-4 10 7 -8 7 -16 30 -17 51 -1 38 -17 67 -36 67 -6 0 -7 -3 -4 -6 3 -4 2 -16
-4 -27 -8 -14 -8 -18 0 -13 6 4 11 1 12 -6 0 -7 2 -29 4 -48 3 -27 2 -31 -6
-17 -10 17 -29 15 -29 -4 0 -6 5 -7 12 -3 7 4 8 3 4 -5 -6 -9 -11 -9 -23 0
-12 11 -12 14 2 22 15 8 15 10 -2 22 -10 7 -22 11 -27 8 -5 -4 -6 -1 -2 6 5 8
12 9 20 2 9 -7 12 -4 13 12 0 12 -1 16 -4 9 -4 -10 -10 -10 -28 2 -12 8 -26
12 -29 9 -12 -12 -67 -12 -60 -1 4 6 1 8 -7 6 -8 -3 -13 -11 -11 -18 2 -8 -3
-10 -14 -6 -14 5 -15 4 -4 -9 7 -8 17 -12 23 -8 6 3 7 1 3 -5 -9 -15 -43 5
-50 28 -3 12 -4 11 -5 -2 0 -10 -6 -18 -12 -18 -6 0 -8 9 -4 21 6 19 5 20 -8
8 -8 -8 -13 -17 -10 -21 2 -5 -1 -8 -6 -8 -15 0 -14 13 2 29 10 11 9 13 -4 8
-12 -4 -18 1 -22 19 -2 13 0 27 4 30 5 3 9 10 9 15 0 6 -4 8 -9 5 -5 -3 -12 1
-15 10 -3 8 -2 12 4 9 6 -3 10 1 10 9 0 9 6 16 13 16 8 0 7 4 -3 10 -13 8 -8
14 11 12 3 -1 6 6 6 14 0 10 -4 11 -11 4 -13 -13 -26 -13 -26 1 0 5 5 7 12 3
8 -5 9 -2 5 9 -4 11 2 25 16 38 12 12 16 19 10 15 -7 -4 -13 -2 -13 4 0 6 7
13 15 16 21 8 19 23 -2 20 -10 -2 -18 -9 -18 -17 0 -8 -10 -15 -22 -15 -29 -2
-30 12 -2 19 13 4 18 10 13 18 -4 7 -3 10 4 5 6 -3 13 -2 17 4 3 5 1 10 -6 10
-7 0 -9 3 -6 6 4 4 14 1 22 -6 14 -11 14 -10 6 13 -8 21 -7 25 4 20 8 -3 12
-10 8 -16 -3 -6 -1 -7 6 -3 9 6 9 11 0 22 -9 11 -9 14 0 14 9 0 9 5 1 20 -9
16 -8 22 5 26 8 3 15 10 15 15 0 6 -8 5 -19 -1 -14 -7 -22 -7 -26 0 -4 6 -1 9
6 8 6 -2 14 3 17 11 3 9 0 11 -9 7 -8 -4 -5 0 5 8 18 15 18 16 2 16 -9 0 -15
4 -12 9 7 10 -16 71 -26 71 -4 0 -8 8 -8 18 -1 15 -2 15 -16 -3 -16 -20 -16
-20 -10 2 6 18 4 21 -13 18 -14 -3 -21 1 -21 12 0 14 -2 14 -15 -3 -15 -19
-15 -19 -8 1 6 18 5 19 -12 5 -10 -8 -16 -10 -12 -3 4 6 4 13 0 16 -5 2 -2 2
5 1 22 -6 13 13 -10 21 -13 4 -26 7 -29 7 -3 -1 -4 10 -1 24 2 14 1 24 -4 23
-21 -4 -34 2 -34 15 0 8 -4 18 -10 21 -6 4 -7 -1 -3 -11 4 -12 3 -15 -6 -10
-7 5 -19 0 -28 -10 -13 -16 -12 -14 1 8 9 16 12 29 6 33 -5 3 -6 13 -3 22 4
11 2 14 -8 11 -8 -3 -14 -10 -14 -15 0 -6 -3 -15 -7 -19 -5 -4 -8 -2 -8 4 0 7
-7 12 -16 12 -9 0 -12 5 -8 12 4 7 3 8 -4 4 -6 -4 -9 -12 -6 -20 3 -7 -2 -13
-11 -13 -8 0 -15 4 -15 9 0 4 -5 8 -11 8 -8 0 -8 -4 -1 -13 7 -8 7 -18 2 -27
-9 -13 -10 -13 -11 0 -1 8 -1 18 0 23 2 11 -14 8 -27 -5 -9 -9 -15 -9 -24 1
-11 10 -9 11 5 5 12 -4 17 -2 15 7 -2 8 4 13 13 11 10 -1 19 7 22 20 5 20 4
21 -6 6 -10 -12 -17 -14 -31 -6 -9 5 -24 7 -32 4 -19 -7 -30 20 -15 38 9 11 6
13 -14 11 -16 -2 -25 2 -25 10 0 16 -32 28 -77 29 -25 1 -29 -1 -21 -11 8 -10
2 -16 -23 -27 -41 -17 -66 -11 -47 12 10 12 10 14 0 8 -7 -4 -15 -1 -18 8 -5
12 -10 13 -26 5 -17 -9 -19 -8 -13 10 4 14 2 21 -6 21 -7 0 -9 -3 -6 -7 4 -3
-1 -12 -11 -20 -9 -8 -11 -12 -4 -8 6 3 12 1 12 -4 0 -6 -4 -11 -10 -11 -5 0
-9 -3 -7 -7 1 -5 -8 -18 -20 -30 -13 -13 -23 -18 -23 -12 0 5 -4 8 -8 5 -4 -2
-9 5 -9 17 -2 20 0 20 10 6 10 -13 16 -14 27 -5 17 13 24 36 11 36 -4 0 -8 10
-7 23 0 12 7 22 15 22 21 0 25 21 6 29 -11 4 -14 2 -9 -6 5 -8 2 -9 -10 -5
-10 4 -15 3 -11 -3 4 -6 -1 -17 -9 -26 -9 -8 -16 -12 -16 -8 0 3 -6 1 -14 -5
-10 -8 -16 -9 -21 -1 -3 5 4 14 17 19 14 6 17 10 8 11 -8 1 -22 3 -32 5 -13 2
-15 -2 -8 -26 5 -18 5 -27 -1 -24 -5 4 -9 13 -9 21 0 8 -5 12 -10 9 -6 -4 -9
-9 -6 -13 2 -4 0 -16 -5 -27 -6 -17 -8 -17 -8 -2 -1 19 -26 23 -36 6 -4 -6
-14 -8 -22 -4 -12 4 -13 2 -5 -8 9 -10 9 -14 -1 -14 -6 0 -22 -3 -34 -7 -14
-5 -23 -3 -23 3 0 10 14 15 33 12 5 -1 6 3 2 9 -4 7 -13 7 -26 -1 -12 -6 -23
-8 -26 -5 -3 3 1 8 10 12 9 3 13 12 10 21 -5 12 -3 14 8 8 12 -7 12 -5 1 6
-11 12 -14 12 -22 -1 -8 -13 -11 -13 -22 -1 -7 8 -8 11 -3 9 6 -3 16 0 23 8
13 14 5 19 -21 15 -5 -1 -5 4 -1 10 5 8 2 10 -8 7 -8 -4 -15 0 -15 7 0 17 18
15 33 -4 9 -11 12 -12 19 -1 5 9 4 11 -3 6 -11 -7 -17 6 -13 27 1 5 -9 5 -21
1 -21 -6 -22 -6 -8 11 8 11 10 16 4 12 -10 -6 -21 1 -71 43 -8 6 -13 6 -15 -2
-2 -6 -15 -13 -29 -15 -18 -2 -20 -1 -9 6 8 5 19 7 25 4 5 -3 5 0 -2 7 -6 7
-9 20 -6 29 4 13 3 14 -5 1 -6 -8 -8 -18 -6 -22 9 -15 -7 -8 -28 12 -12 11
-24 17 -27 14 -3 -3 2 -11 12 -19 16 -11 16 -13 2 -19 -9 -3 -14 -2 -11 3 8
12 -19 33 -30 23 -4 -4 -2 2 6 12 14 18 14 19 -9 7 -14 -8 -21 -9 -17 -2 4 6
-3 21 -15 33 -12 13 -19 18 -16 12 4 -7 -1 -18 -11 -25 -15 -13 -16 -12 -4 3
12 15 11 17 -7 17 -12 1 -30 1 -41 2 -11 0 -22 5 -26 10 -4 6 -17 1 -32 -13
-24 -20 -25 -21 -9 -1 18 20 18 22 0 31 -10 6 -18 14 -18 19 0 4 -3 7 -7 6 -5
-2 -8 1 -8 6 0 5 11 8 23 7 18 -1 23 -6 19 -20 -3 -12 -1 -17 6 -13 15 10 7
43 -9 39 -11 -3 -12 -1 -1 9 10 11 15 10 29 -4 13 -12 14 -17 4 -17 -11 0 -11
-3 -1 -15 7 -8 16 -13 20 -10 4 3 10 -2 14 -10 3 -9 12 -12 22 -8 13 5 15 3 9
-8 -8 -12 -6 -12 8 0 17 13 24 26 9 17 -4 -2 -18 2 -32 11 -14 8 -17 12 -8 9
10 -3 20 0 24 7 4 7 4 9 -1 5 -12 -11 -67 21 -59 35 4 7 4 9 -1 5 -4 -4 -17
-3 -28 3 -12 7 -17 7 -13 1 10 -16 -24 -23 -39 -8 -8 7 -13 15 -12 17 1 2 0 3
-3 1 -3 -2 -5 -8 -5 -14 0 -14 -33 -19 -41 -7 -8 14 -26 11 -18 -3 4 -7 4 -10
-1 -6 -4 4 -15 2 -24 -4 -9 -7 -5 0 8 15 18 20 27 24 33 15 5 -9 7 -5 5 9 -2
12 -7 26 -11 30 -4 5 -6 2 -4 -6z m-29 -24 c4 3 7 3 7 0 0 -3 -8 -11 -18 -16
-14 -7 -18 -6 -18 9 0 13 4 16 12 10 6 -6 14 -7 17 -3z m-893 -7 c0 -5 -2 -10
-4 -10 -3 0 -8 5 -11 10 -3 6 -1 10 4 10 6 0 11 -4 11 -10z m-106 -46 c3 -8 2
-12 -4 -9 -6 3 -10 10 -10 16 0 14 7 11 14 -7z m646 11 c0 -2 -6 -8 -13 -14
-10 -8 -14 -7 -14 2 0 8 6 14 14 14 7 0 13 -1 13 -2z m-697 -16 c-6 -6 -9 -19
-6 -28 4 -13 3 -14 -5 -1 -10 14 1 40 16 40 3 0 1 -5 -5 -11z m463 -1 c4 -7 4
-10 -1 -6 -4 4 -15 2 -24 -5 -14 -11 -14 -10 -2 6 16 20 18 21 27 5z m794 -2
c0 -3 -4 -8 -10 -11 -5 -3 -10 -1 -10 4 0 6 5 11 10 11 6 0 10 -2 10 -4z m-70
-40 c0 -2 -8 -10 -17 -17 -16 -13 -17 -12 -4 4 13 16 21 21 21 13z m100 -41
c0 -2 -6 -5 -13 -8 -8 -3 -14 1 -14 8 0 7 6 11 14 8 7 -3 13 -6 13 -8z m48
-30 c-3 -3 -9 2 -12 12 -6 14 -5 15 5 6 7 -7 10 -15 7 -18z m166 -60 c-4 -8
-11 -15 -16 -15 -6 0 -5 6 2 15 7 8 14 15 16 15 2 0 1 -7 -2 -15z m41 -24 c-6
-5 -25 10 -25 20 0 5 6 4 14 -3 8 -7 12 -15 11 -17z m-1861 1 c3 -5 -1 -9 -9
-9 -8 0 -12 4 -9 9 3 4 7 8 9 8 2 0 6 -4 9 -8z m2156 -117 c-32 -18 -44 -19
-29 -2 7 7 22 14 33 14 19 2 18 0 -4 -12z m-2345 -5 c3 -5 1 -10 -4 -10 -6 0
-11 5 -11 10 0 6 2 10 4 10 3 0 8 -4 11 -10z m2611 -2 c4 -7 3 -8 -4 -4 -7 4
-12 2 -12 -5 0 -7 -3 -10 -6 -6 -6 5 3 27 11 27 2 0 7 -5 11 -12z m-390 -13
c-1 -8 -5 -17 -8 -21 -5 -4 -4 16 1 34 3 9 9 -1 7 -13z m144 5 c0 -5 -5 -10
-11 -10 -5 0 -7 5 -4 10 3 6 8 10 11 10 2 0 4 -4 4 -10z m87 -12 c-3 -8 -6 -5
-6 6 -1 11 2 17 5 13 3 -3 4 -12 1 -19z m-137 -1 c0 -2 -12 -14 -27 -28 l-26
-24 19 27 c16 23 34 36 34 25z m-2470 -61 c0 -3 -4 -8 -10 -11 -5 -3 -10 -1
-10 4 0 6 5 11 10 11 6 0 10 -2 10 -4z m50 0 c0 -2 -8 -10 -17 -17 -16 -13
-17 -12 -4 4 13 16 21 21 21 13z m2830 0 c0 -2 -7 -7 -16 -10 -8 -3 -12 -2 -9
4 6 10 25 14 25 6z m135 -39 c10 13 14 13 20 3 5 -9 4 -11 -3 -6 -7 4 -12 1
-12 -8 0 -9 -5 -16 -10 -16 -7 0 -7 -7 0 -22 11 -22 10 -22 -4 -4 -10 12 -16
15 -16 7 0 -8 -9 -3 -21 10 -18 21 -20 22 -14 4 5 -15 3 -17 -5 -8 -9 8 -9 16
-1 30 6 10 11 12 11 6 0 -7 5 -13 10 -13 6 0 9 3 9 8 -3 20 3 25 14 10 10 -15
12 -15 22 -1z m76 -48 c20 -10 17 -29 -4 -29 -8 0 -7 3 2 9 10 6 6 11 -15 19
-16 6 -23 11 -16 11 7 1 22 -4 33 -10z m-116 -19 c3 -5 1 -10 -4 -10 -6 0 -11
5 -11 10 0 6 2 10 4 10 3 0 8 -4 11 -10z m-3130 -40 c-3 -5 -12 -10 -18 -10
-7 0 -6 4 3 10 19 12 23 12 15 0z m-251 -128 c3 -5 -1 -9 -9 -9 -8 0 -12 4 -9
9 3 4 7 8 9 8 2 0 6 -4 9 -8z m-85 -81 c12 -8 7 -18 -24 -53 -21 -24 -46 -48
-54 -55 -19 -15 -45 -17 -36 -3 4 6 12 7 18 3 9 -5 9 -3 0 8 -10 12 -8 17 8
27 10 7 19 17 19 23 0 8 -6 7 -17 -2 -16 -13 -17 -12 -5 3 8 9 19 15 25 13 7
-3 23 5 37 16 17 15 19 19 7 15 -11 -3 -16 -2 -12 4 8 12 16 12 34 1z m3765
-22 c-3 -5 -10 -7 -15 -3 -5 3 -7 10 -3 15 3 5 10 7 15 3 5 -3 7 -10 3 -15z
m-3885 -112 c8 -10 7 -14 -2 -14 -8 0 -14 6 -14 14 0 7 1 13 2 13 2 0 8 -6 14
-13z m-30 0 c-2 -1 -13 -9 -24 -17 -19 -14 -19 -14 -6 3 7 9 18 17 24 17 6 0
8 -1 6 -3z m15 -39 c-3 -4 -9 -8 -15 -8 -5 0 -9 4 -9 8 0 5 7 9 15 9 8 0 12
-4 9 -9z m3840 4 c3 -5 -1 -9 -9 -9 -8 0 -12 4 -9 9 3 4 7 8 9 8 2 0 6 -4 9
-8z m-4050 -136 c-6 -15 -24 -23 -24 -11 0 8 24 34 28 30 1 -1 0 -10 -4 -19z
m4047 -19 c-10 -9 -11 -8 -5 6 3 10 9 15 12 12 3 -3 0 -11 -7 -18z m29 -67 c0
-5 -5 -10 -11 -10 -5 0 -7 5 -4 10 3 6 8 10 11 10 2 0 4 -4 4 -10z m220 -14
c0 -3 -4 -8 -10 -11 -5 -3 -10 -1 -10 4 0 6 5 11 10 11 6 0 10 -2 10 -4z m20
-42 c0 -8 -19 -13 -24 -6 -3 5 1 9 9 9 8 0 15 -2 15 -3z m78 -79 c-3 -3 -9 2
-12 12 -6 14 -5 15 5 6 7 -7 10 -15 7 -18z m-87 -18 c-10 -9 -11 -8 -5 6 3 10
9 15 12 12 3 -3 0 -11 -7 -18z m183 -13 c3 -8 2 -13 -3 -9 -5 3 -11 -1 -14 -7
-2 -7 -8 -10 -12 -6 -4 4 -2 14 5 23 15 19 16 19 24 -1z m21 -34 c-3 -5 -2
-10 2 -10 5 0 13 -8 20 -18 9 -15 8 -19 -3 -19 -7 0 -11 4 -9 8 3 3 -2 12 -10
19 -13 11 -12 30 1 30 3 0 2 -4 -1 -10z m-58 -72 c-3 -8 -6 -5 -6 6 -1 11 2
17 5 13 3 -3 4 -12 1 -19z m113 -32 c0 -11 -19 -15 -25 -6 -3 5 1 10 9 10 9 0
16 -2 16 -4z m-5120 -36 c6 -11 8 -20 6 -20 -3 0 -10 9 -16 20 -6 11 -8 20 -6
20 3 0 10 -9 16 -20z m5058 -21 c-10 -5 -18 -17 -18 -26 0 -9 -3 -14 -6 -10
-11 11 7 47 24 47 16 -1 15 -2 0 -11z m12 -18 c0 -6 -4 -12 -8 -15 -5 -3 -9 1
-9 9 0 8 4 15 9 15 4 0 8 -4 8 -9z m-83 -18 c-4 -3 -1 -13 6 -22 11 -14 10
-14 -5 -2 -16 12 -16 31 -1 31 4 0 3 -3 0 -7z m13 -89 c0 -2 -7 -4 -15 -4 -8
0 -15 4 -15 10 0 5 7 7 15 4 8 -4 15 -8 15 -10z m35 -14 c3 -6 -1 -7 -9 -4
-18 7 -21 14 -7 14 6 0 13 -4 16 -10z m13 -45 c-3 -3 -9 2 -12 12 -6 14 -5 15
5 6 7 -7 10 -15 7 -18z m-5303 -14 c3 -5 2 -12 -3 -15 -5 -3 -9 1 -9 9 0 17 3
19 12 6z m-35 -41 c0 -5 -2 -10 -4 -10 -3 0 -8 5 -11 10 -3 6 -1 10 4 10 6 0
11 -4 11 -10z m5440 -40 c0 -5 -2 -10 -4 -10 -3 0 -8 5 -11 10 -3 6 -1 10 4
10 6 0 11 -4 11 -10z m115 -61 c-5 -25 -15 -38 -15 -20 0 7 -5 9 -12 5 -7 -4
-4 2 6 14 24 27 26 27 21 1z m-25 -35 c0 -8 -19 -13 -24 -6 -3 5 1 9 9 9 8 0
15 -2 15 -3z m136 -91 c-3 -17 -26 -32 -26 -16 0 8 20 33 26 33 1 0 1 -8 0
-17z m-46 -33 c0 -4 -7 -7 -15 -6 -23 3 -26 12 -5 13 11 1 20 -2 20 -7z
m-5862 -85 c-3 -3 -9 2 -12 12 -6 14 -5 15 5 6 7 -7 10 -15 7 -18z m5892 3 c0
-4 -4 -8 -9 -8 -6 0 -12 4 -15 8 -3 5 1 9 9 9 8 0 15 -4 15 -9z m-5 -258 c3
-6 -1 -7 -9 -4 -18 7 -21 14 -7 14 6 0 13 -4 16 -10z m-38 -106 c-3 -3 -12 -4
-19 -1 -8 3 -5 6 6 6 11 1 17 -2 13 -5z m-6092 -114 c3 -5 1 -10 -4 -10 -6 0
-11 5 -11 10 0 6 2 10 4 10 3 0 8 -4 11 -10z m6090 -20 c3 -6 -1 -7 -9 -4 -18
7 -21 14 -7 14 6 0 13 -4 16 -10z m-6123 -138 c3 -10 0 -19 -6 -19 -7 0 -12 9
-12 19 0 10 3 18 7 18 4 0 9 -8 11 -18z m6133 -22 c3 -5 1 -10 -4 -10 -6 0
-11 5 -11 10 0 6 2 10 4 10 3 0 8 -4 11 -10z m-6234 -193 c-10 -9 -11 -8 -5 6
3 10 9 15 12 12 3 -3 0 -11 -7 -18z m-11 -27 c0 -5 -2 -10 -4 -10 -3 0 -8 5
-11 10 -3 6 -1 10 4 10 6 0 11 -4 11 -10z m6170 -5 c0 -8 -2 -15 -4 -15 -2 0
-6 7 -10 15 -3 8 -1 15 4 15 6 0 10 -7 10 -15z m-16 -33 c3 -5 -1 -9 -9 -9 -8
0 -12 4 -9 9 3 4 7 8 9 8 2 0 6 -4 9 -8z m13 -162 c1 -11 -2 -22 -6 -24 -6 -4
-7 26 -2 42 3 8 7 -1 8 -18z m10 -52 c-3 -8 -6 -5 -6 6 -1 11 2 17 5 13 3 -3
4 -12 1 -19z m-6217 -234 c0 -8 -19 -13 -24 -6 -3 5 1 9 9 9 8 0 15 -2 15 -3z
m5967 -396 c-3 -8 -6 -5 -6 6 -1 11 2 17 5 13 3 -3 4 -12 1 -19z m-33 -324 c5
-14 4 -15 -9 -4 -17 14 -19 20 -6 20 5 0 12 -7 15 -16z"/>
<path d="M9470 14349 c0 -5 5 -7 10 -4 6 3 10 8 10 11 0 2 -4 4 -10 4 -5 0
-10 -5 -10 -11z"/>
<path d="M7745 14870 c-3 -6 1 -7 9 -4 18 7 21 14 7 14 -6 0 -13 -4 -16 -10z"/>
<path d="M8257 14867 c-3 -8 1 -14 8 -14 7 0 11 6 8 14 -3 7 -6 13 -8 13 -2 0
-5 -6 -8 -13z"/>
<path d="M7531 14844 c6 -7 16 -11 21 -8 11 7 3 17 -18 20 -12 2 -13 -1 -3
-12z"/>
<path d="M7656 14848 c3 -4 14 -6 24 -5 31 5 32 13 1 12 -16 0 -27 -3 -25 -7z"/>
<path d="M8544 14811 c7 -11 -49 -32 -60 -23 -3 4 -2 -3 5 -15 6 -12 17 -25
23 -29 17 -10 48 -13 43 -3 -3 4 2 10 11 13 11 4 14 1 9 -13 -4 -12 0 -21 11
-25 15 -6 15 -4 3 11 -12 15 -12 16 3 10 24 -9 43 17 23 33 -10 9 -15 9 -15 1
0 -6 5 -11 11 -11 5 0 7 -5 3 -12 -5 -8 -14 -3 -30 15 -12 14 -25 23 -28 20
-3 -4 -6 -1 -6 5 0 5 5 12 12 14 7 3 5 7 -6 11 -9 4 -15 3 -12 -2z m22 -48
c-9 -10 -46 -10 -52 -1 -10 16 17 27 37 15 10 -6 17 -13 15 -14z"/>
<path d="M8526 14772 c-3 -5 1 -9 9 -9 8 0 12 4 9 9 -3 4 -7 8 -9 8 -2 0 -6
-4 -9 -8z"/>
<path d="M8364 14787 c-4 -6 -4 -9 1 -5 4 4 14 3 22 -4 7 -6 15 -9 18 -7 2 3
-4 10 -15 17 -15 9 -21 9 -26 -1z"/>
<path d="M8630 14730 c0 -5 5 -10 10 -10 6 0 10 5 10 10 0 6 -4 10 -10 10 -5
0 -10 -4 -10 -10z"/>
<path d="M8664 14692 c23 -26 23 -26 23 -7 0 8 -3 13 -5 10 -3 -3 -12 1 -21 7
-10 8 -9 4 3 -10z"/>
<path d="M8901 14564 c0 -11 3 -14 6 -6 3 7 2 16 -1 19 -3 4 -6 -2 -5 -13z"/>
<path d="M8876 14531 c-3 -5 1 -11 9 -14 9 -4 12 -1 8 9 -6 16 -10 17 -17 5z"/>
<path d="M9156 14512 c-2 -4 -1 -14 4 -22 7 -11 9 -9 7 8 -1 24 -3 26 -11 14z"/>
<path d="M9330 14444 c0 -8 5 -12 10 -9 6 3 10 10 10 16 0 5 -4 9 -10 9 -5 0
-10 -7 -10 -16z"/>
<path d="M9370 14450 c0 -5 5 -10 11 -10 5 0 7 5 4 10 -3 6 -8 10 -11 10 -2 0
-4 -4 -4 -10z"/>
<path d="M6341 14343 c-2 -20 16 -24 30 -5 13 15 12 16 -3 4 -13 -10 -17 -10
-21 0 -4 9 -6 9 -6 1z"/>
<path d="M9621 14313 c-1 -17 16 -25 25 -12 4 7 3 9 -4 5 -5 -3 -13 0 -15 6
-4 9 -6 10 -6 1z"/>
<path d="M9756 13862 c-3 -5 1 -9 9 -9 8 0 12 4 9 9 -3 4 -7 8 -9 8 -2 0 -6
-4 -9 -8z"/>
<path d="M5655 13810 c-3 -5 -1 -10 4 -10 6 0 11 5 11 10 0 6 -2 10 -4 10 -3
0 -8 -4 -11 -10z"/>
<path d="M9990 13810 c0 -5 5 -10 11 -10 5 0 7 5 4 10 -3 6 -8 10 -11 10 -2 0
-4 -4 -4 -10z"/>
<path d="M10004 13743 c2 -10 -2 -22 -8 -26 -7 -5 -3 -6 8 -3 10 4 25 1 32 -5
10 -8 14 -8 14 0 0 6 -4 11 -10 11 -5 0 -10 5 -10 11 0 5 6 7 13 3 7 -4 9 -3
4 2 -5 5 -12 9 -15 9 -4 0 -12 4 -19 8 -7 4 -10 1 -9 -10z"/>
<path d="M9905 13730 c-5 -8 -4 -11 2 -7 6 4 14 0 17 -9 4 -12 2 -15 -9 -10
-8 3 -14 2 -14 -2 3 -20 -2 -25 -12 -12 -8 12 -10 12 -7 1 6 -20 36 -22 48 -3
5 10 10 12 10 5 0 -7 5 -13 11 -13 8 0 9 4 0 13 -6 8 -9 17 -6 20 3 4 2 5 -2
2 -3 -3 -11 3 -18 12 -9 13 -14 13 -20 3z"/>
<path d="M9740 13716 c0 -2 8 -10 18 -17 15 -13 16 -12 3 4 -13 16 -21 21 -21
13z"/>
<path d="M10004 13636 c1 -8 5 -18 8 -22 4 -3 5 1 4 10 -1 8 -5 18 -8 22 -4 3
-5 -1 -4 -10z"/>
<path d="M10074 13636 c1 -8 5 -18 8 -22 4 -3 5 1 4 10 -1 8 -5 18 -8 22 -4 3
-5 -1 -4 -10z"/>
<path d="M10090 13589 c0 -5 5 -7 10 -4 6 3 10 8 10 11 0 2 -4 4 -10 4 -5 0
-10 -5 -10 -11z"/>
<path d="M5395 13570 c-3 -5 -2 -10 4 -10 5 0 13 5 16 10 3 6 2 10 -4 10 -5 0
-13 -4 -16 -10z"/>
<path d="M10154 13532 c4 -3 14 -7 22 -8 9 -1 13 0 10 4 -4 3 -14 7 -22 8 -9
1 -13 0 -10 -4z"/>
<path d="M5350 13519 c0 -5 5 -7 10 -4 6 3 10 8 10 11 0 2 -4 4 -10 4 -5 0
-10 -5 -10 -11z"/>
<path d="M10215 13411 c-3 -5 -2 -12 3 -15 5 -3 9 1 9 9 0 17 -3 19 -12 6z"/>
<path d="M10228 13326 c4 -6 7 -14 7 -18 0 -19 11 -14 11 6 0 12 -6 23 -13 23
-6 0 -9 -5 -5 -11z"/>
<path d="M10209 13287 c6 -8 7 -18 3 -22 -4 -5 -2 -5 5 -1 14 8 6 36 -9 36 -7
0 -6 -5 1 -13z"/>
<path d="M10190 13262 c0 -7 -6 -11 -12 -9 -7 1 -12 -6 -12 -15 1 -10 -2 -18
-6 -18 -7 0 -7 -12 -1 -38 1 -2 14 6 30 17 15 11 31 18 34 15 3 -3 4 2 2 13
-2 10 -4 20 -4 22 -1 2 -9 -3 -19 -12 -18 -16 -32 -14 -32 5 0 5 4 7 9 3 11
-6 26 13 17 22 -3 4 -6 1 -6 -5z m30 -26 c0 -2 -8 -10 -17 -17 -16 -13 -17
-12 -4 4 13 16 21 21 21 13z m-49 -39 c-10 -9 -11 -8 -5 6 3 10 9 15 12 12 3
-3 0 -11 -7 -18z"/>
<path d="M10116 13208 c3 -5 10 -6 15 -3 13 9 11 12 -6 12 -8 0 -12 -4 -9 -9z"/>
<path d="M10221 13124 c0 -11 3 -14 6 -6 3 7 2 16 -1 19 -3 4 -6 -2 -5 -13z"/>
<path d="M10327 13006 c-4 -10 -1 -13 8 -9 8 3 12 9 9 14 -7 12 -11 11 -17 -5z"/>
<path d="M4460 12655 c0 -2 6 -8 13 -14 10 -8 14 -7 14 2 0 8 -6 14 -14 14 -7
0 -13 -1 -13 -2z"/>
<path d="M10510 12553 c0 -5 5 -15 10 -23 8 -12 10 -11 10 8 0 12 -4 22 -10
22 -5 0 -10 -3 -10 -7z"/>
<path d="M10457 12403 c-3 -5 4 -15 16 -23 21 -12 21 -12 7 6 -8 10 -15 20
-16 22 -1 2 -4 -1 -7 -5z"/>
<path d="M10416 12321 c-12 -13 -14 -21 -6 -26 5 -3 8 -10 5 -15 -3 -5 -1 -11
4 -15 6 -3 8 3 6 15 -2 11 3 24 13 30 14 8 14 9 2 10 -13 0 -13 1 0 10 8 5 10
10 4 10 -6 0 -19 -9 -28 -19z"/>
<path d="M10416 12184 c-4 -11 -1 -12 13 -5 10 6 20 9 22 8 2 -1 3 0 1 2 -7
11 -31 8 -36 -5z"/>
<path d="M4216 12051 c-3 -4 4 -7 14 -6 27 2 33 10 10 12 -11 1 -22 -2 -24 -6z"/>
<path d="M4166 11955 c4 -8 11 -15 16 -15 6 0 5 6 -2 15 -7 8 -14 15 -16 15
-2 0 -1 -7 2 -15z"/>
<path d="M10305 11569 c-3 -4 2 -6 10 -5 21 3 28 13 10 13 -9 0 -18 -4 -20 -8z"/>
</g>
</svg>
